<svg width="501" height="189" viewBox="0 0 501 189" fill="none" xmlns="http://www.w3.org/2000/svg">
<path d="M52.0781 14.4922V159.492" stroke="black" stroke-width="14.4583" stroke-linecap="round" stroke-linejoin="round"/>
<path d="M30.0781 18.1172V54.3672C30.0781 72.4922 52.0781 72.4922 52.0781 72.4922C52.0781 72.4922 74.0781 72.4922 74.0781 54.3672V18.1172" stroke="black" stroke-width="14.4583" stroke-linecap="round" stroke-linejoin="round"/>
<path d="M140.078 43.4922C140.078 14.4922 110.745 14.4922 110.745 14.4922V76.1172H140.078V43.4922Z" fill="#2F88FF"/>
<path d="M110.745 76.1172H140.078V43.4922C140.078 14.4922 110.745 14.4922 110.745 14.4922V76.1172ZM110.745 76.1172V159.492" stroke="black" stroke-width="14.4583" stroke-linecap="round" stroke-linejoin="round"/>
<path d="M449.223 137.966L451.745 131.656H465.724L464.148 137.125L461.204 142.381H452.584L449.223 137.966Z" fill="#2F88FF"/>
<path d="M342.191 126.088L347.14 110.384L363.276 108.445L366.288 128.023L360.91 144.589L345.85 142.437L342.191 126.088Z" fill="#2F88FF"/>
<path d="M275.973 115.591L278.366 108.352L294.117 109.642L295.466 116.2L293.32 123.494L285.658 124.046L278.366 122.636L275.973 115.591Z" fill="#2F88FF"/>
<path d="M157.828 119.625L161.473 109.586H175.522L176.144 118.561L157.828 119.625Z" fill="#2F88FF"/>
<path d="M137.532 124.513C137.532 118.002 138.624 112.187 140.807 107.068C142.99 101.95 146.358 97.9041 150.912 94.9308C155.504 91.9199 161.224 90.4145 168.074 90.4145C171.649 90.4145 175.225 90.8473 178.8 91.7129C182.376 92.5409 185.405 93.9335 187.889 95.8905C190.185 97.7347 191.841 100.181 192.857 103.23C193.911 106.24 194.438 109.59 194.438 113.278C194.438 115.725 194.231 118.228 193.817 120.787C193.365 121.539 192.481 122.537 191.164 123.779C189.846 124.983 188.303 126.169 186.535 127.335C184.766 128.502 183.053 129.405 181.397 130.045C179.816 130.158 178.179 130.215 176.486 130.215C173.512 130.215 170.502 130.083 167.453 129.819C164.405 129.556 161.732 129.255 159.437 128.916C159.738 132.115 160.716 134.9 162.372 137.271C164.028 139.642 166.663 140.828 170.276 140.828C170.614 140.828 171.16 140.79 171.913 140.715C174.209 140.489 176.881 139.887 179.929 138.908C183.016 137.892 186.083 136.726 189.131 135.408C190.562 136.839 191.615 138.269 192.293 139.699C192.97 141.129 193.441 143.18 193.704 145.852C192.537 147.207 190.637 148.863 188.002 150.82C185.405 152.777 182.225 154.546 178.462 156.127C174.698 157.67 170.765 158.442 166.663 158.442C160.49 158.442 155.203 156.955 150.799 153.982C146.433 150.971 143.121 146.906 140.863 141.788C138.643 136.632 137.532 130.873 137.532 124.513ZM173.889 111.528C173.362 110.964 172.477 110.531 171.235 110.23C169.993 109.891 168.695 109.722 167.34 109.722C166.249 109.722 165.138 109.816 164.009 110.004C162.918 110.192 162.259 110.399 162.033 110.625C160.754 113.147 159.945 116.007 159.606 119.206L174.679 117.738L173.889 111.528ZM207.648 142.183C207.648 140.564 207.686 136.594 207.761 130.271C207.874 117.851 207.931 111.058 207.931 109.891L202.737 109.044C202.022 106.899 201.514 104.886 201.213 103.004C200.911 101.122 200.761 99.2213 200.761 97.3019C200.761 96.5115 200.78 95.9093 200.817 95.4954C201.457 94.9308 202.455 94.2534 203.809 93.463C205.164 92.6726 206.764 91.9764 208.608 91.3742C210.452 90.7344 212.334 90.4145 214.253 90.4145C218.732 90.4145 221.969 91.4118 223.964 93.4066C225.996 95.4013 227.012 98.3181 227.012 102.157C227.012 104.49 226.711 107.482 226.109 111.133C225.544 114.746 224.961 117.324 224.359 118.867L226.391 119.206L229.778 106.447C231.284 100.689 233.166 96.5868 235.424 94.1405C237.682 91.6565 240.222 90.4145 243.045 90.4145C244.889 90.4145 246.714 90.6968 248.521 91.2613C250.365 91.8258 251.777 92.5221 252.755 93.3501C253.809 95.6835 254.336 98.7885 254.336 102.665C254.336 105.375 254.072 108.066 253.545 110.738C253.019 113.372 252.341 115.499 251.513 117.117L239.658 115.537C237.249 118.096 234.69 121.652 231.98 126.206C229.27 130.723 227.106 134.881 225.488 138.683L225.431 141.618L236.383 139.021C238.228 141.844 239.3 145.194 239.601 149.07C239.601 149.296 238.754 150.218 237.061 151.836C235.367 153.455 233.128 154.96 230.343 156.353C227.595 157.708 224.434 158.385 220.859 158.385C217.17 158.385 214.084 157.407 211.6 155.45C209.154 153.455 207.855 150.105 207.705 145.401C207.667 144.836 207.648 143.764 207.648 142.183ZM291.539 166.289C294.061 166.289 296.243 166.006 298.088 165.442C298.652 164.877 299.047 164.219 299.273 163.466C299.499 162.751 299.612 162.073 299.612 161.434C299.612 160.756 299.555 160.248 299.443 159.909C299.33 159.608 299.141 159.326 298.878 159.063C297.297 158.799 295.434 158.611 293.289 158.498C291.181 158.423 289.921 158.366 289.507 158.329C284.275 158.103 280.022 157.726 276.748 157.2C273.474 156.635 270.67 155.431 268.336 153.587C266.003 151.705 264.836 148.882 264.836 145.118C264.836 143.086 265.495 141.185 266.812 139.417C268.129 137.61 269.842 136.029 271.949 134.674C267.659 132.906 264.215 130.252 261.618 126.714C259.059 123.139 257.779 118.529 257.779 112.883C257.779 107.275 259.21 102.778 262.07 99.3907C264.968 95.9658 268.525 93.5571 272.74 92.1646C276.955 90.772 281.246 90.0758 285.611 90.0758C288.359 90.0758 291.05 90.3392 293.684 90.8661C296.319 91.393 298.765 92.1457 301.023 93.1243L298.596 78.785C300.892 77.3924 303.752 76.6962 307.177 76.6962C309.661 76.6962 311.975 77.1102 314.121 77.9382C316.266 78.7661 317.903 79.9517 319.032 81.4948C319.107 81.8711 319.145 82.4733 319.145 83.3013C319.145 86.3874 318.58 89.8311 317.451 93.6324C316.36 97.396 314.459 100.426 311.75 102.721C313.104 105.431 313.782 108.348 313.782 111.472C313.782 116.063 312.897 120.297 311.129 124.174C309.397 128.051 306.499 131.212 302.435 133.658C298.37 136.067 293.082 137.271 286.571 137.271C284.689 137.271 282.732 137.158 280.7 136.933C280.587 138.814 281.039 140.696 282.055 142.578C287.136 141.599 291.238 141.091 294.362 141.054L298.201 140.997C303.394 140.997 307.327 141.317 309.999 141.957C312.935 142.672 315.118 144.29 316.548 146.812C318.016 149.334 318.75 152.401 318.75 156.014C318.75 161.659 317.019 166.402 313.556 170.24C310.131 174.117 305.671 176.996 300.176 178.878C294.719 180.76 288.923 181.701 282.789 181.701C277.106 181.701 272.044 180.741 267.602 178.821C263.161 176.902 260.358 173.383 259.191 168.265C260.433 163.936 262.804 160.662 266.304 158.442C271.009 161.264 275.506 163.278 279.797 164.482C284.125 165.687 288.039 166.289 291.539 166.289ZM288.095 123.327C290.805 123.327 292.386 123.158 292.837 122.819C293.854 120.787 294.362 118.698 294.362 116.553C294.362 114.332 293.854 112.243 292.837 110.286C292.348 109.872 291.257 109.552 289.563 109.327C287.907 109.101 286.101 108.988 284.144 108.988C281.697 108.988 280.06 109.138 279.232 109.439C278.065 111.509 277.482 113.598 277.482 115.706C277.482 117.851 278.028 119.883 279.119 121.803C279.947 122.33 281.189 122.725 282.845 122.988C284.539 123.214 286.289 123.327 288.095 123.327ZM323.944 123.948C323.944 117.136 325.035 111.227 327.218 106.222C329.401 101.216 332.75 97.3395 337.267 94.5921C341.783 91.807 347.447 90.4145 354.259 90.4145C361.787 90.4145 367.695 91.8258 371.986 94.6485C376.276 97.4336 379.269 101.31 380.962 106.278C382.693 111.246 383.559 117.324 383.559 124.513C383.559 131.024 382.411 136.839 380.115 141.957C377.857 147.038 374.432 151.065 369.841 154.038C365.287 156.974 359.698 158.442 353.074 158.442C342.837 158.442 335.423 155.299 330.831 149.014C326.239 142.691 323.944 134.336 323.944 123.948ZM355.388 141.901C357.308 141.901 358.475 141.75 358.889 141.449C359.754 139.943 360.413 137.817 360.865 135.07C361.316 132.322 361.542 129.349 361.542 126.15C361.542 123.214 361.354 120.467 360.977 117.908C360.601 115.311 360.074 113.278 359.397 111.811C358.983 111.321 358.155 110.964 356.913 110.738C355.671 110.474 354.316 110.343 352.848 110.343C350.929 110.343 349.611 110.55 348.896 110.964C347.014 114.2 346.074 118.698 346.074 124.456C346.074 127.166 346.281 129.932 346.695 132.755C347.109 135.578 347.635 138.137 348.275 140.433C348.727 140.922 349.649 141.298 351.042 141.562C352.434 141.788 353.883 141.901 355.388 141.901ZM389.656 83.4706C389.092 81.1748 388.715 79.2742 388.527 77.7688C388.339 76.2257 388.264 74.4568 388.301 72.4621C389.092 71.4459 390.315 70.4298 391.971 69.4136C393.664 68.3598 395.621 67.4753 397.842 66.7603C400.1 66.0452 402.434 65.6876 404.842 65.6876C409.547 65.6876 413.16 66.8732 415.681 69.2442C418.203 71.6153 419.464 75.1155 419.464 79.7447C419.464 83.0566 419.182 88.3821 418.617 95.7212C418.052 103.06 417.243 110.87 416.189 119.15C415.136 127.392 413.931 134.599 412.576 140.771L412.689 140.884L421.045 137.384C423.98 139.906 425.693 143.255 426.182 147.433C426.182 147.696 425.335 148.788 423.641 150.707C421.948 152.589 419.708 154.358 416.923 156.014C414.176 157.632 411.015 158.442 407.439 158.442C403.713 158.442 400.683 157.407 398.35 155.337C396.054 153.267 394.963 149.729 395.076 144.723L395.189 134.562C395.226 124.927 395.32 116.252 395.471 108.536C395.659 100.821 396.035 92.8608 396.6 84.6562L389.656 83.4706ZM448.933 120.109C451.153 120.109 453.6 120.335 456.272 120.787C458.982 121.238 461.466 121.784 463.724 122.424V120.674C463.724 119.507 463.686 118.209 463.611 116.779C463.573 115.348 463.498 114.407 463.385 113.956C463.046 113.316 462.068 112.657 460.449 111.98C458.869 111.302 456.272 110.964 452.659 110.964C450.438 110.964 448.142 111.246 445.771 111.811C443.438 112.337 440.841 113.053 437.981 113.956C436.438 111.397 435.196 108.969 434.255 106.673C433.351 104.34 432.9 102.006 432.9 99.6729C432.9 98.9579 432.956 98.2428 433.069 97.5277C439.166 92.7856 447.051 90.4145 456.723 90.4145C462.068 90.4145 466.81 91.0167 470.95 92.221C475.09 93.4254 478.496 95.7588 481.168 99.2213C483.84 102.684 485.176 107.595 485.176 113.956C485.176 120.166 484.442 126.188 482.975 132.021C481.544 137.817 480.81 140.771 480.773 140.884L488.959 137.384C490.05 138.551 491.01 139.981 491.838 141.675C492.703 143.331 493.249 145.25 493.475 147.433C492.948 148.562 491.8 150.011 490.031 151.78C488.262 153.511 486.098 155.054 483.539 156.409C480.98 157.764 478.308 158.442 475.523 158.442C472.399 158.442 470.028 157.519 468.409 155.675C466.829 153.831 466.038 151.441 466.038 148.506C466.038 146.85 466.283 145.175 466.772 143.481L465.079 142.973C464.025 148.92 461.785 152.984 458.361 155.167C454.936 157.35 451.153 158.442 447.013 158.442C444.304 158.442 441.688 157.689 439.166 156.183C436.645 154.64 434.593 152.42 433.013 149.522C431.432 146.586 430.642 143.161 430.642 139.247C430.642 133 432.204 128.257 435.327 125.021C438.451 121.746 442.986 120.109 448.933 120.109ZM455.369 141.618C456.309 141.43 457.42 140.903 458.699 140.038C460.017 139.172 461.183 138.137 462.199 136.933C463.216 135.728 463.818 134.58 464.006 133.489L463.667 132.134C461.673 131.871 459.546 131.739 457.288 131.739C455.369 131.739 454.051 131.889 453.336 132.19C452.132 133.545 451.53 135.051 451.53 136.707C451.53 137.911 451.831 139.003 452.433 139.981C453.073 140.96 454.051 141.505 455.369 141.618Z" fill="black"/>
<path d="M451.322 131.245L464.046 129.555L466.46 135.234L462.571 141.437L453.95 144.38L449.223 138.178L451.322 131.245Z" stroke="black" stroke-width="1.65168"/>
</svg>
